<?xml version="1.0" encoding="UTF-8"?>
<!DOCTYPE svg PUBLIC "-//W3C//DTD SVG 1.1//EN" "http://www.w3.org/Graphics/SVG/1.1/DTD/svg11.dtd">
<svg xmlns="http://www.w3.org/2000/svg" version="1.1" width="320px" height="320px" style="shape-rendering:geometricPrecision; text-rendering:geometricPrecision; image-rendering:optimizeQuality; fill-rule:evenodd; clip-rule:evenodd" xmlns:xlink="http://www.w3.org/1999/xlink">
<g><path style="opacity:1" fill="#201d1d" d="M 168.5,53.5 C 169.469,54.3094 170.302,55.3094 171,56.5C 172.356,55.6198 173.856,55.2865 175.5,55.5C 191.181,60.1887 202.514,69.8554 209.5,84.5C 209.166,87.491 210.166,89.8243 212.5,91.5C 212.5,91.8333 212.5,92.1667 212.5,92.5C 212.723,96.1621 213.723,99.4954 215.5,102.5C 215.5,103.167 215.5,103.833 215.5,104.5C 216.256,119.399 212.59,133.066 204.5,145.5C 195.224,155.476 184.224,162.976 171.5,168C 164.547,169.163 157.547,169.663 150.5,169.5C 147.917,168.776 145.251,167.943 142.5,167C 145.811,167.215 149.144,167.215 152.5,167C 148.163,165.93 143.83,165.263 139.5,165C 140.167,165.333 140.833,165.667 141.5,166C 141.272,166.399 140.938,166.565 140.5,166.5C 139.167,166.167 137.833,165.833 136.5,165.5C 136.918,164.778 137.584,164.278 138.5,164C 137.584,163.722 136.918,163.222 136.5,162.5C 140.443,163.486 144.443,164.152 148.5,164.5C 167.015,166.009 182.848,160.009 196,146.5C 196.617,145.551 196.451,144.718 195.5,144C 196.823,143.184 197.489,142.017 197.5,140.5C 201.562,133.364 204.228,125.698 205.5,117.5C 206.163,115.359 206.497,113.025 206.5,110.5C 206.637,106.553 205.97,102.886 204.5,99.5C 200.883,88.6036 194.55,79.6036 185.5,72.5C 185.027,71.0937 184.027,70.427 182.5,70.5C 180.046,69.7729 177.713,68.7729 175.5,67.5C 173.383,65.3455 170.716,64.3455 167.5,64.5C 150.534,62.1567 135.534,66.4901 122.5,77.5C 119.729,76.2266 118.062,77.2266 117.5,80.5C 111.978,86.7047 107.645,93.7047 104.5,101.5C 103.842,100.602 103.176,99.6016 102.5,98.5C 101.702,98.9569 101.369,99.6236 101.5,100.5C 100.732,99.7375 100.232,98.7375 100,97.5C 98.0558,105.352 97.2225,105.019 97.5,96.5C 98.9238,94.4855 99.5905,92.1522 99.5,89.5C 100.895,87.9456 101.561,88.279 101.5,90.5C 100.772,92.1547 100.605,93.8214 101,95.5C 102.737,91.4578 104.57,87.4578 106.5,83.5C 106.154,82.3044 105.654,82.3044 105,83.5C 104.517,82.552 104.351,81.552 104.5,80.5C 105.433,77.6298 107.1,75.2964 109.5,73.5C 111.459,73.7562 112.793,74.2562 113.5,75C 117.578,70.2511 122.245,66.2511 127.5,63C 127.167,62.6667 126.833,62.3333 126.5,62C 128.426,61.5776 129.426,60.4109 129.5,58.5C 133.767,57.7444 137.767,56.411 141.5,54.5C 146.233,52.9538 151.233,52.2871 156.5,52.5C 160.581,52.5319 164.581,52.8652 168.5,53.5 Z M 167.5,75.5 C 165.116,80.9395 165.116,86.2729 167.5,91.5C 166.761,91.631 166.094,91.4643 165.5,91C 164.601,89.3484 163.601,87.8484 162.5,86.5C 162.401,83.7628 162.735,81.0961 163.5,78.5C 163.833,77.8333 164.167,77.1667 164.5,76.5C 165.391,75.8902 166.391,75.5569 167.5,75.5 Z M 177.5,75.5 C 180.843,77.4966 182.51,80.4966 182.5,84.5C 182.5,84.8333 182.5,85.1667 182.5,85.5C 180.833,89.1667 178.167,91.8333 174.5,93.5C 172.585,93.7845 170.919,93.4511 169.5,92.5C 173.367,92.6471 176.533,90.9804 179,87.5C 179.437,83.3773 178.937,79.3773 177.5,75.5 Z"/></g>
<g><path style="opacity:1" fill="#6d6b6b" d="M 168.5,53.5 C 171.067,53.7215 173.401,54.3882 175.5,55.5C 173.856,55.2865 172.356,55.6198 171,56.5C 170.302,55.3094 169.469,54.3094 168.5,53.5 Z"/></g>
<g><path style="opacity:0.867" fill="#706c6c" d="M 141.5,54.5 C 137.767,56.411 133.767,57.7444 129.5,58.5C 133.085,56.1939 137.085,54.8606 141.5,54.5 Z"/></g>
<g><path style="opacity:1" fill="#484545" d="M 129.5,58.5 C 129.426,60.4109 128.426,61.5776 126.5,62C 126.833,62.3333 127.167,62.6667 127.5,63C 122.245,66.2511 117.578,70.2511 113.5,75C 112.793,74.2562 111.459,73.7562 109.5,73.5C 115.03,66.9681 121.697,61.9681 129.5,58.5 Z"/></g>
<g><path style="opacity:0.796" fill="#8b8888" d="M 167.5,64.5 C 170.716,64.3455 173.383,65.3455 175.5,67.5C 172.603,66.871 169.936,65.871 167.5,64.5 Z"/></g>
<g><path style="opacity:1" fill="#c85f55" d="M 184.5,78.5 C 183.883,78.3893 183.383,78.056 183,77.5C 183.412,79.9952 183.245,82.3285 182.5,84.5C 182.51,80.4966 180.843,77.4966 177.5,75.5C 177.158,74.6618 176.492,74.3284 175.5,74.5C 173.5,73.1667 171.5,73.1667 169.5,74.5C 168.508,74.3284 167.842,74.6618 167.5,75.5C 166.391,75.5569 165.391,75.8902 164.5,76.5C 164.44,75.9569 164.107,75.6236 163.5,75.5C 162.482,76.1925 161.482,76.8592 160.5,77.5C 164.996,69.7265 171.33,67.8931 179.5,72C 182.021,73.5579 183.688,75.7245 184.5,78.5 Z"/></g>
<g><path style="opacity:0.525" fill="#8d8989" d="M 182.5,70.5 C 184.027,70.427 185.027,71.0937 185.5,72.5C 183.973,72.573 182.973,71.9063 182.5,70.5 Z"/></g>
<g><path style="opacity:0.62" fill="#7a7777" d="M 122.5,77.5 C 121.101,78.8897 119.434,79.8897 117.5,80.5C 118.062,77.2266 119.729,76.2266 122.5,77.5 Z"/></g>
<g><path style="opacity:0.792" fill="#c7807d" d="M 144.5,81.5 C 140.958,82.6746 137.291,83.3413 133.5,83.5C 136.647,82.2601 139.98,81.2601 143.5,80.5C 144.107,80.6236 144.44,80.9569 144.5,81.5 Z"/></g>
<g><path style="opacity:0.974" fill="#cb4e41" d="M 164.5,76.5 C 164.167,77.1667 163.833,77.8333 163.5,78.5C 161.974,79.4919 161.307,80.9919 161.5,83C 161.514,84.3847 161.848,85.5514 162.5,86.5C 162.631,87.3764 162.298,88.0431 161.5,88.5C 160.818,87.7573 160.151,87.0906 159.5,86.5C 158.185,83.3726 158.518,80.3726 160.5,77.5C 161.482,76.8592 162.482,76.1925 163.5,75.5C 164.107,75.6236 164.44,75.9569 164.5,76.5 Z"/></g>
<g><path style="opacity:0.286" fill="#e5a3a2" d="M 163.5,78.5 C 162.735,81.0961 162.401,83.7628 162.5,86.5C 161.848,85.5514 161.514,84.3847 161.5,83C 161.307,80.9919 161.974,79.4919 163.5,78.5 Z"/></g>
<g><path style="opacity:0.475" fill="#d9afaf" d="M 169.5,74.5 C 171.5,74.5 173.5,74.5 175.5,74.5C 175.842,75.3382 176.508,75.6716 177.5,75.5C 178.937,79.3773 179.437,83.3773 179,87.5C 176.533,90.9804 173.367,92.6471 169.5,92.5C 169.158,91.6618 168.492,91.3284 167.5,91.5C 165.116,86.2729 165.116,80.9395 167.5,75.5C 168.492,75.6716 169.158,75.3382 169.5,74.5 Z"/></g>
<g><path style="opacity:0.737" fill="#d98b88" d="M 184.5,78.5 C 186.707,81.7198 186.707,85.0531 184.5,88.5C 184.5,85.1667 184.5,81.8333 184.5,78.5 Z"/></g>
<g><path style="opacity:1" fill="#474545" d="M 104.5,80.5 C 104.351,81.552 104.517,82.552 105,83.5C 105.654,82.3044 106.154,82.3044 106.5,83.5C 104.57,87.4578 102.737,91.4578 101,95.5C 100.605,93.8214 100.772,92.1547 101.5,90.5C 101.561,88.279 100.895,87.9456 99.5,89.5C 100.41,86.0078 102.076,83.0078 104.5,80.5 Z"/></g>
<g><path style="opacity:1" fill="#cc332d" d="M 144.5,81.5 C 145.338,81.8417 145.672,82.5084 145.5,83.5C 145.433,84.9587 145.766,86.2921 146.5,87.5C 146.5,87.8333 146.5,88.1667 146.5,88.5C 146.5,89.5 146.5,90.5 146.5,91.5C 145.791,92.404 144.791,92.7373 143.5,92.5C 140.505,92.2938 137.838,92.9605 135.5,94.5C 132.997,95.0845 130.497,95.7511 128,96.5C 126.97,96.1639 126.47,95.4972 126.5,94.5C 126.037,91.5176 125.704,88.5176 125.5,85.5C 126.791,85.7373 127.791,85.404 128.5,84.5C 129.919,83.5489 131.585,83.2155 133.5,83.5C 137.291,83.3413 140.958,82.6746 144.5,81.5 Z"/></g>
<g><path style="opacity:0.133" fill="#ddb2b0" d="M 150.5,83.5 C 149.5,83.5 148.5,83.5 147.5,83.5C 147.5,84.8333 147.5,86.1667 147.5,87.5C 147.167,87.5 146.833,87.5 146.5,87.5C 145.766,86.2921 145.433,84.9587 145.5,83.5C 146.721,82.9717 147.887,82.305 149,81.5C 149.717,82.0442 150.217,82.7109 150.5,83.5 Z"/></g>
<g><path style="opacity:1" fill="#cb4b40" d="M 150.5,83.5 C 151.833,85.1667 151.833,86.8333 150.5,88.5C 149.5,88.5 148.5,88.5 147.5,88.5C 147.5,88.1667 147.5,87.8333 147.5,87.5C 147.5,86.1667 147.5,84.8333 147.5,83.5C 148.5,83.5 149.5,83.5 150.5,83.5 Z"/></g>
<g><path style="opacity:0.224" fill="#e0b4b3" d="M 128.5,84.5 C 127.791,85.404 126.791,85.7373 125.5,85.5C 125.704,88.5176 126.037,91.5176 126.5,94.5C 125.039,95.6857 123.705,95.6857 122.5,94.5C 124.852,93.048 125.185,91.048 123.5,88.5C 123.043,87.7025 122.376,87.3691 121.5,87.5C 123.428,85.7061 125.762,84.7061 128.5,84.5 Z"/></g>
<g><path style="opacity:0.961" fill="#6e6c6c" d="M 209.5,84.5 C 211.065,86.5093 212.065,88.8427 212.5,91.5C 210.166,89.8243 209.166,87.491 209.5,84.5 Z"/></g>
<g><path style="opacity:0.153" fill="#eed5d5" d="M 146.5,88.5 C 146.833,88.5 147.167,88.5 147.5,88.5C 148.5,88.5 149.5,88.5 150.5,88.5C 149.074,89.3412 147.74,90.3412 146.5,91.5C 146.5,90.5 146.5,89.5 146.5,88.5 Z"/></g>
<g><path style="opacity:1" fill="#c96259" d="M 159.5,86.5 C 160.151,87.0906 160.818,87.7573 161.5,88.5C 162.298,88.0431 162.631,87.3764 162.5,86.5C 163.601,87.8484 164.601,89.3484 165.5,91C 166.094,91.4643 166.761,91.631 167.5,91.5C 167.842,92.3382 168.508,92.6716 169.5,92.5C 170.919,93.4511 172.585,93.7845 174.5,93.5C 171.48,94.839 168.48,94.5056 165.5,92.5C 164.537,92.9698 164.537,93.6365 165.5,94.5C 162.063,92.9774 160.063,90.3107 159.5,86.5 Z"/></g>
<g><path style="opacity:0.792" fill="#c46e68" d="M 182.5,85.5 C 182.167,90.5 179.5,93.1667 174.5,93.5C 178.167,91.8333 180.833,89.1667 182.5,85.5 Z"/></g>
<g><path style="opacity:1" fill="#ca3f36" d="M 184.5,78.5 C 184.5,81.8333 184.5,85.1667 184.5,88.5C 186.289,92.812 189.123,96.4786 193,99.5C 194.167,103.667 192.667,105.167 188.5,104C 185.833,101.333 183.167,98.6667 180.5,96C 177.876,95.9603 175.209,96.127 172.5,96.5C 169.795,96.6839 167.462,96.0173 165.5,94.5C 164.537,93.6365 164.537,92.9698 165.5,92.5C 168.48,94.5056 171.48,94.839 174.5,93.5C 179.5,93.1667 182.167,90.5 182.5,85.5C 182.5,85.1667 182.5,84.8333 182.5,84.5C 183.245,82.3285 183.412,79.9952 183,77.5C 183.383,78.056 183.883,78.3893 184.5,78.5 Z"/></g>
<g><path style="opacity:0.827" fill="#7e7b7b" d="M 99.5,89.5 C 99.5905,92.1522 98.9238,94.4855 97.5,96.5C 97.4095,93.8478 98.0762,91.5145 99.5,89.5 Z"/></g>
<g><path style="opacity:0.969" fill="#c54238" d="M 121.5,87.5 C 122.376,87.3691 123.043,87.7025 123.5,88.5C 125.185,91.048 124.852,93.048 122.5,94.5C 120.8,92.7901 119.467,90.7901 118.5,88.5C 119.325,87.6143 120.325,87.281 121.5,87.5 Z"/></g>
<g><path style="opacity:0.933" fill="#726f6f" d="M 212.5,92.5 C 214.277,95.5046 215.277,98.8379 215.5,102.5C 213.723,99.4954 212.723,96.1621 212.5,92.5 Z"/></g>
<g><path style="opacity:0.231" fill="#eac7c7" d="M 143.5,92.5 C 141.852,94.4559 141.185,96.7892 141.5,99.5C 140.167,99.5 138.833,99.5 137.5,99.5C 136.976,97.6943 136.309,96.0276 135.5,94.5C 137.838,92.9605 140.505,92.2938 143.5,92.5 Z"/></g>
<g><path style="opacity:1" fill="#b61d1c" d="M 137.5,94.5 C 138.5,94.5 139.5,94.5 140.5,94.5C 140.5,95.5 140.5,96.5 140.5,97.5C 139.5,97.5 138.5,97.5 137.5,97.5C 137.5,96.5 137.5,95.5 137.5,94.5 Z"/></g>
<g><path style="opacity:0.137" fill="#d1cdcd" d="M 104.5,101.5 C 104.44,102.043 104.107,102.376 103.5,102.5C 102.818,101.757 102.151,101.091 101.5,100.5C 101.369,99.6236 101.702,98.9569 102.5,98.5C 103.176,99.6016 103.842,100.602 104.5,101.5 Z"/></g>
<g><path style="opacity:0.255" fill="#e0bebd" d="M 141.5,99.5 C 143.088,101.113 144.088,103.113 144.5,105.5C 143.167,106.167 142.167,107.167 141.5,108.5C 140.005,108.011 138.671,107.345 137.5,106.5C 142.451,106.47 143.784,104.137 141.5,99.5 Z"/></g>
<g><path style="opacity:0.894" fill="#c34c43" d="M 137.5,99.5 C 138.833,99.5 140.167,99.5 141.5,99.5C 143.784,104.137 142.451,106.47 137.5,106.5C 135.516,106.516 134.516,105.516 134.5,103.5C 134.561,101.347 135.561,100.014 137.5,99.5 Z M 138.5,101.5 C 140.76,102.238 140.927,103.238 139,104.5C 137.272,103.648 137.105,102.648 138.5,101.5 Z"/></g>
<g><path style="opacity:0.835" fill="#534f4f" d="M 97.5,96.5 C 97.2225,105.019 98.0558,105.352 100,97.5C 100.232,98.7375 100.732,99.7375 101.5,100.5C 101.702,102.95 101.369,105.283 100.5,107.5C 99.7777,108.551 98.7777,109.218 97.5,109.5C 96.7347,106.904 96.4013,104.237 96.5,101.5C 96.2155,99.5853 96.5489,97.9187 97.5,96.5 Z"/></g>
<g><path style="opacity:0.086" fill="#e2dada" d="M 96.5,101.5 C 96.4013,104.237 96.7347,106.904 97.5,109.5C 95.9735,108.508 95.3068,107.008 95.5,105C 95.5143,103.615 95.8476,102.449 96.5,101.5 Z"/></g>
<g><path style="opacity:1" fill="#c9483e" d="M 144.5,105.5 C 146.167,106.5 147.5,107.833 148.5,109.5C 148.19,111.144 147.19,112.144 145.5,112.5C 143.833,111.5 142.5,110.167 141.5,108.5C 142.167,107.167 143.167,106.167 144.5,105.5 Z"/></g>
<g><path style="opacity:0.224" fill="#a8a5a5" d="M 204.5,99.5 C 205.97,102.886 206.637,106.553 206.5,110.5C 206.497,113.025 206.163,115.359 205.5,117.5C 205.575,111.471 205.241,105.471 204.5,99.5 Z"/></g>
<g><path style="opacity:1" fill="#df7f73" d="M 148.5,109.5 C 151.084,111.419 150.75,113.086 147.5,114.5C 146.478,114.145 145.811,113.478 145.5,112.5C 147.19,112.144 148.19,111.144 148.5,109.5 Z"/></g>
<g><path style="opacity:1" fill="#cd3830" d="M 184.5,137.5 C 183.078,137.709 181.745,138.209 180.5,139C 183.374,139.942 186.04,141.109 188.5,142.5C 188.389,143.117 188.056,143.617 187.5,144C 180.833,144.667 174.167,144.667 167.5,144C 166.748,143.329 166.414,142.496 166.5,141.5C 168.199,141.66 169.866,141.494 171.5,141C 171.167,140.667 170.833,140.333 170.5,140C 175.038,139.694 175.371,138.86 171.5,137.5C 168.092,136.422 166.092,134.089 165.5,130.5C 165.342,127.098 165.676,123.764 166.5,120.5C 167.658,117.178 169.992,115.012 173.5,114C 183.593,112.27 189.26,116.437 190.5,126.5C 190.843,131.483 188.843,135.15 184.5,137.5 Z M 176.5,125.5 C 179.957,125.667 180.29,126.667 177.5,128.5C 176.614,127.675 176.281,126.675 176.5,125.5 Z"/></g>
<g><path style="opacity:1" fill="#c45444" d="M 162.5,120.5 C 165.167,121.167 165.167,121.833 162.5,122.5C 161.167,121.833 161.167,121.167 162.5,120.5 Z"/></g>
<g><path style="opacity:0.996" fill="#a62723" d="M 117.5,123.5 C 128.679,123.172 139.679,123.505 150.5,124.5C 139.833,124.5 129.167,124.5 118.5,124.5C 118.5,131.833 118.5,139.167 118.5,146.5C 117.833,146.5 117.5,146.167 117.5,145.5C 117.5,138.167 117.5,130.833 117.5,123.5 Z"/></g>
<g><path style="opacity:0.137" fill="#cecbcb" d="M 100.5,107.5 C 100.67,108.822 100.337,109.989 99.5,111C 101.489,115.159 102.656,119.659 103,124.5C 105.537,126.923 107.037,129.923 107.5,133.5C 106.35,132.15 105.683,132.316 105.5,134C 106.556,137.293 108.223,140.126 110.5,142.5C 110.5,142.833 110.5,143.167 110.5,143.5C 109.207,144.645 108.041,144.311 107,142.5C 104.262,137.697 102.096,132.697 100.5,127.5C 101.124,127.083 101.457,126.416 101.5,125.5C 101.036,122.651 100.369,119.984 99.5,117.5C 99.3067,114.692 98.64,112.025 97.5,109.5C 98.7777,109.218 99.7777,108.551 100.5,107.5 Z"/></g>
<g><path style="opacity:0.373" fill="#ddb5b5" d="M 162.5,120.5 C 163.705,119.314 165.039,119.314 166.5,120.5C 165.676,123.764 165.342,127.098 165.5,130.5C 164.402,131.601 164.235,132.934 165,134.5C 166.333,136.5 167.667,138.5 169,140.5C 169.698,139.309 170.531,138.309 171.5,137.5C 175.371,138.86 175.038,139.694 170.5,140C 170.833,140.333 171.167,140.667 171.5,141C 169.866,141.494 168.199,141.66 166.5,141.5C 164.754,138.337 163.254,135.004 162,131.5C 161.264,128.408 161.431,125.408 162.5,122.5C 165.167,121.833 165.167,121.167 162.5,120.5 Z"/></g>
<g><path style="opacity:0.286" fill="#e2bebd" d="M 184.5,137.5 C 185.507,139.522 187.174,140.855 189.5,141.5C 189.376,142.107 189.043,142.44 188.5,142.5C 186.04,141.109 183.374,139.942 180.5,139C 181.745,138.209 183.078,137.709 184.5,137.5 Z"/></g>
<g><path style="opacity:0.722" fill="#838080" d="M 107.5,133.5 C 109.178,136.195 110.844,138.861 112.5,141.5C 111.508,141.328 110.842,141.662 110.5,142.5C 108.223,140.126 106.556,137.293 105.5,134C 105.683,132.316 106.35,132.15 107.5,133.5 Z"/></g>
<g><path style="opacity:0.243" fill="#b1aeae" d="M 215.5,104.5 C 217.594,118.202 215.094,131.202 208,143.5C 207.184,144.823 206.017,145.489 204.5,145.5C 212.59,133.066 216.256,119.399 215.5,104.5 Z"/></g>
<g><path style="opacity:1" fill="#c21d1d" d="M 150.5,124.5 C 150.5,131.833 150.5,139.167 150.5,146.5C 146.298,146.183 142.298,146.517 138.5,147.5C 138.5,148.833 138.5,150.167 138.5,151.5C 137.329,152.742 132.662,153.075 124.5,152.5C 126.265,151.539 128.265,151.205 130.5,151.5C 130.5,149.833 130.5,148.167 130.5,146.5C 126.5,146.5 122.5,146.5 118.5,146.5C 118.5,139.167 118.5,131.833 118.5,124.5C 129.167,124.5 139.833,124.5 150.5,124.5 Z M 121.5,126.5 C 130.167,126.5 138.833,126.5 147.5,126.5C 147.5,132.167 147.5,137.833 147.5,143.5C 138.833,143.5 130.167,143.5 121.5,143.5C 121.5,137.833 121.5,132.167 121.5,126.5 Z"/></g>
<g><path style="opacity:0.373" fill="#daa9a9" d="M 120.5,125.5 C 129.833,125.5 139.167,125.5 148.5,125.5C 148.5,131.833 148.5,138.167 148.5,144.5C 139.167,144.5 129.833,144.5 120.5,144.5C 120.5,138.167 120.5,131.833 120.5,125.5 Z M 121.5,126.5 C 121.5,132.167 121.5,137.833 121.5,143.5C 130.167,143.5 138.833,143.5 147.5,143.5C 147.5,137.833 147.5,132.167 147.5,126.5C 138.833,126.5 130.167,126.5 121.5,126.5 Z"/></g>
<g><path style="opacity:0.376" fill="#dca1a1" d="M 117.5,123.5 C 128.654,122.505 139.988,122.172 151.5,122.5C 151.5,130.833 151.5,139.167 151.5,147.5C 147.5,147.5 143.5,147.5 139.5,147.5C 139.167,147.5 138.833,147.5 138.5,147.5C 142.298,146.517 146.298,146.183 150.5,146.5C 150.5,139.167 150.5,131.833 150.5,124.5C 139.679,123.505 128.679,123.172 117.5,123.5 Z"/></g>
<g><path style="opacity:0.635" fill="#908c8c" d="M 99.5,117.5 C 99.4595,120.881 99.7929,124.214 100.5,127.5C 102.096,132.697 104.262,137.697 107,142.5C 108.041,144.311 109.207,144.645 110.5,143.5C 116.106,153.723 124.772,161.056 136.5,165.5C 137.833,165.833 139.167,166.167 140.5,166.5C 140.833,167.167 141.167,167.833 141.5,168.5C 115.515,161.084 100.515,143.917 96.5,117C 96.8333,116.167 97.1667,115.333 97.5,114.5C 98.1757,115.602 98.8423,116.602 99.5,117.5 Z"/></g>
<g><path style="opacity:0.28" fill="#e5bcbc" d="M 138.5,147.5 C 138.833,147.5 139.167,147.5 139.5,147.5C 139.5,148.5 139.5,149.5 139.5,150.5C 141.167,150.5 142.833,150.5 144.5,150.5C 144.5,151.5 144.5,152.5 144.5,153.5C 138.31,153.177 132.31,153.51 126.5,154.5C 125.5,154.167 124.833,153.5 124.5,152.5C 132.662,153.075 137.329,152.742 138.5,151.5C 138.5,150.167 138.5,148.833 138.5,147.5 Z"/></g>
<g><path style="opacity:0.863" fill="#403c3c" d="M 112.5,141.5 C 114.497,146.012 117.497,149.845 121.5,153C 126.227,156.691 131.227,159.858 136.5,162.5C 136.918,163.222 137.584,163.722 138.5,164C 137.584,164.278 136.918,164.778 136.5,165.5C 124.772,161.056 116.106,153.723 110.5,143.5C 110.5,143.167 110.5,142.833 110.5,142.5C 110.842,141.662 111.508,141.328 112.5,141.5 Z"/></g>
<g><path style="opacity:0.635" fill="#a59d9d" d="M 112.5,141.5 C 114.167,142.833 115.833,144.167 117.5,145.5C 117.5,146.167 117.833,146.5 118.5,146.5C 122.5,146.5 126.5,146.5 130.5,146.5C 130.5,148.167 130.5,149.833 130.5,151.5C 128.265,151.205 126.265,151.539 124.5,152.5C 124.833,153.5 125.5,154.167 126.5,154.5C 137.431,160.286 149.097,162.619 161.5,161.5C 156.349,162.327 151.016,162.827 145.5,163C 147.506,163.083 148.506,163.583 148.5,164.5C 144.443,164.152 140.443,163.486 136.5,162.5C 131.227,159.858 126.227,156.691 121.5,153C 117.497,149.845 114.497,146.012 112.5,141.5 Z M 121.5,149.5 C 120.527,149.013 119.527,148.513 118.5,148C 122.152,147.501 125.818,147.335 129.5,147.5C 129.5,148.5 129.5,149.5 129.5,150.5C 127.208,150.244 125.041,150.577 123,151.5C 122.283,150.956 121.783,150.289 121.5,149.5 Z"/></g>
<g><path style="opacity:0.737" fill="#696666" d="M 197.5,140.5 C 197.489,142.017 196.823,143.184 195.5,144C 196.451,144.718 196.617,145.551 196,146.5C 182.848,160.009 167.015,166.009 148.5,164.5C 148.506,163.583 147.506,163.083 145.5,163C 151.016,162.827 156.349,162.327 161.5,161.5C 176.501,159.469 188.501,152.469 197.5,140.5 Z"/></g>
<g><path style="opacity:0.824" fill="#5f5c5c" d="M 150.5,169.5 C 149.167,169.5 147.833,169.5 146.5,169.5C 144.585,169.784 142.919,169.451 141.5,168.5C 141.167,167.833 140.833,167.167 140.5,166.5C 140.938,166.565 141.272,166.399 141.5,166C 140.833,165.667 140.167,165.333 139.5,165C 143.83,165.263 148.163,165.93 152.5,167C 149.144,167.215 145.811,167.215 142.5,167C 145.251,167.943 147.917,168.776 150.5,169.5 Z"/></g>
<g><path style="opacity:0.333" fill="#b5b1b1" d="M 204.5,145.5 C 203.665,149.324 201.665,152.49 198.5,155C 183.43,168.265 166.096,173.099 146.5,169.5C 147.833,169.5 149.167,169.5 150.5,169.5C 157.547,169.663 164.547,169.163 171.5,168C 184.224,162.976 195.224,155.476 204.5,145.5 Z"/></g>
<g><path style="opacity:1" fill="#d1352d" d="M 49.5,180.5 C 50.6857,181.705 50.6857,183.039 49.5,184.5C 48.7777,185.551 47.7777,186.218 46.5,186.5C 44.5853,186.784 42.9187,186.451 41.5,185.5C 39.0314,184.683 36.3647,184.183 33.5,184C 34.6405,183.259 34.6405,182.425 33.5,181.5C 38.7921,180.505 44.1254,180.172 49.5,180.5 Z"/></g>
<g><path style="opacity:0.998" fill="#d74a3f" d="M 70.5,178.5 C 72.451,178.227 73.951,178.893 75,180.5C 79.5,192.833 84,205.167 88.5,217.5C 88.2907,218.086 87.9574,218.586 87.5,219C 85.1667,219.667 82.8333,219.667 80.5,219C 78.8082,214.926 77.3082,210.76 76,206.5C 71.8358,205.636 67.6691,205.97 63.5,207.5C 61.9623,211.407 60.2956,215.24 58.5,219C 56.0437,219.946 54.0437,219.446 52.5,217.5C 57.3044,205.087 62.3044,192.753 67.5,180.5C 68.6016,179.824 69.6016,179.158 70.5,178.5 Z M 69.5,189.5 C 71.6013,192.797 72.9347,196.463 73.5,200.5C 70.8127,200.664 68.146,200.497 65.5,200C 67.3296,196.676 68.6629,193.176 69.5,189.5 Z"/></g>
<g><path style="opacity:0.998" fill="#df685c" d="M 49.5,180.5 C 44.1254,180.172 38.7921,180.505 33.5,181.5C 34.6405,182.425 34.6405,183.259 33.5,184C 36.3647,184.183 39.0314,184.683 41.5,185.5C 34.3857,184.039 30.3857,186.705 29.5,193.5C 30.4365,186.38 28.4365,185.047 23.5,189.5C 26.7167,181.961 32.5501,178.294 41,178.5C 44.1156,178.489 46.949,179.155 49.5,180.5 Z"/></g>
<g><path style="opacity:0.998" fill="#dd6054" d="M 99.5,178.5 C 104.795,178.459 109.795,179.625 114.5,182C 118.724,187.48 118.391,192.646 113.5,197.5C 119.429,202.552 120.595,208.552 117,215.5C 115.421,217.041 113.587,218.208 111.5,219C 104.918,219.81 98.4184,219.643 92,218.5C 91.3333,205.833 91.3333,193.167 92,180.5C 94.6073,179.877 97.1073,179.21 99.5,178.5 Z M 100.5,184.5 C 101.5,184.5 102.5,184.5 103.5,184.5C 104.878,185.234 106.378,185.901 108,186.5C 108.497,188.81 108.663,191.143 108.5,193.5C 107.29,193.932 106.29,194.599 105.5,195.5C 103.833,195.5 102.167,195.5 100.5,195.5C 100.5,191.833 100.5,188.167 100.5,184.5 Z M 106.5,201.5 C 110.973,204.806 111.64,208.806 108.5,213.5C 105.833,213.5 103.167,213.5 100.5,213.5C 100.5,209.5 100.5,205.5 100.5,201.5C 102.5,201.5 104.5,201.5 106.5,201.5 Z"/></g>
<g><path style="opacity:0.999" fill="#ce2423" d="M 103.5,184.5 C 102.5,184.5 101.5,184.5 100.5,184.5C 99.5166,188.298 99.1832,192.298 99.5,196.5C 101.924,196.192 104.257,196.526 106.5,197.5C 107.653,198.687 107.653,199.687 106.5,200.5C 104.167,200.5 101.833,200.5 99.5,200.5C 99.5,205.167 99.5,209.833 99.5,214.5C 102.713,214.81 105.713,214.477 108.5,213.5C 110.842,213.775 110.842,214.608 108.5,216C 108.957,216.414 109.291,216.914 109.5,217.5C 104.208,218.495 98.8746,218.828 93.5,218.5C 93.5,205.833 93.5,193.167 93.5,180.5C 98.544,180.173 103.544,180.506 108.5,181.5C 107.625,183.773 105.958,184.773 103.5,184.5 Z"/></g>
<g><path style="opacity:0.999" fill="#d74a3f" d="M 134.5,178.5 C 138.516,178.287 142.35,178.954 146,180.5C 146.687,182.92 146.187,185.087 144.5,187C 140.65,185.836 136.65,185.502 132.5,186C 131.167,188 131.167,190 132.5,192C 137.532,193.598 142.032,196.098 146,199.5C 150.53,208.267 148.363,214.767 139.5,219C 135.5,219.667 131.5,219.667 127.5,219C 121.56,216.925 121.06,213.759 126,209.5C 130.459,212.659 135.292,213.659 140.5,212.5C 140.663,210.143 140.497,207.81 140,205.5C 135.727,203.521 131.56,201.355 127.5,199C 121.134,189.227 123.467,182.394 134.5,178.5 Z"/></g>
<g><path style="opacity:0.999" fill="#d6473c" d="M 217.5,188.5 C 218.307,194.464 218.64,200.464 218.5,206.5C 217.576,213.014 213.91,217.014 207.5,218.5C 201.797,218.625 196.13,218.292 190.5,217.5C 185.969,214.794 183.135,210.794 182,205.5C 180.302,182.194 190.469,174.361 212.5,182C 214.765,183.758 216.432,185.925 217.5,188.5 Z M 194.5,212.5 C 193.833,211.167 192.833,210.167 191.5,209.5C 190.032,202.096 190.199,194.762 192,187.5C 204.564,181.875 211.064,186.042 211.5,200C 211.995,212.426 206.328,216.592 194.5,212.5 Z"/></g>
<g><path style="opacity:1" fill="#ca1515" d="M 251.5,180.5 C 253.5,180.5 255.5,180.5 257.5,180.5C 257.5,189.5 257.5,198.5 257.5,207.5C 256.507,199.016 256.174,190.349 256.5,181.5C 255.167,181.5 253.833,181.5 252.5,181.5C 252.666,191.172 252.5,200.839 252,210.5C 251.5,200.506 251.334,190.506 251.5,180.5 Z"/></g>
<g><path style="opacity:1" fill="#d0312b" d="M 274.5,184.5 C 274.5,189.167 274.5,193.833 274.5,198.5C 275.209,199.404 276.209,199.737 277.5,199.5C 277.5,200.5 277.5,201.5 277.5,202.5C 276.209,202.263 275.209,202.596 274.5,203.5C 274.666,208.511 274.499,213.511 274,218.5C 271.726,219.811 269.56,219.811 267.5,218.5C 267.5,205.833 267.5,193.167 267.5,180.5C 273.176,180.334 278.843,180.501 284.5,181C 281.197,182.483 277.864,183.65 274.5,184.5 Z"/></g>
<g><path style="opacity:1" fill="#d95247" d="M 288.5,181.5 C 288.427,183.027 289.094,184.027 290.5,184.5C 294.264,191.948 292.597,198.115 285.5,203C 288.343,208.342 292.343,212.509 297.5,215.5C 298.326,216.451 298.492,217.451 298,218.5C 294.591,219.622 291.091,219.789 287.5,219C 283.303,214.776 279.97,209.942 277.5,204.5C 276.675,203.614 275.675,203.281 274.5,203.5C 275.209,202.596 276.209,202.263 277.5,202.5C 277.5,201.5 277.5,200.5 277.5,199.5C 276.209,199.737 275.209,199.404 274.5,198.5C 283.548,198.536 286.214,194.369 282.5,186C 279.937,184.921 277.271,184.421 274.5,184.5C 277.864,183.65 281.197,182.483 284.5,181C 278.843,180.501 273.176,180.334 267.5,180.5C 267.5,193.167 267.5,205.833 267.5,218.5C 266.505,205.677 266.171,192.677 266.5,179.5C 274.123,177.607 281.457,178.274 288.5,181.5 Z M 274.5,184.5 C 277.271,184.421 279.937,184.921 282.5,186C 286.214,194.369 283.548,198.536 274.5,198.5C 274.5,193.833 274.5,189.167 274.5,184.5 Z"/></g>
<g><path style="opacity:0.562" fill="#df7978" d="M 175.5,184.5 C 175.5,183.167 175.5,181.833 175.5,180.5C 168.833,180.5 162.167,180.5 155.5,180.5C 155.5,193.167 155.5,205.833 155.5,218.5C 154.505,205.677 154.171,192.677 154.5,179.5C 161.833,179.5 169.167,179.5 176.5,179.5C 176.784,181.415 176.451,183.081 175.5,184.5 Z"/></g>
<g><path style="opacity:1" fill="#cf2c27" d="M 175.5,184.5 C 170.833,184.5 166.167,184.5 161.5,184.5C 161.182,189.032 161.515,193.366 162.5,197.5C 166.298,198.483 170.298,198.817 174.5,198.5C 174.5,199.5 174.5,200.5 174.5,201.5C 170.298,201.183 166.298,201.517 162.5,202.5C 162.666,207.844 162.499,213.177 162,218.5C 159.726,219.811 157.56,219.811 155.5,218.5C 155.5,205.833 155.5,193.167 155.5,180.5C 162.167,180.5 168.833,180.5 175.5,180.5C 175.5,181.833 175.5,183.167 175.5,184.5 Z"/></g>
<g><path style="opacity:0.514" fill="#e18282" d="M 227.5,180.5 C 229.607,179.532 231.941,179.198 234.5,179.5C 234.5,189.167 234.5,198.833 234.5,208.5C 233.506,199.348 233.173,190.015 233.5,180.5C 231.5,180.5 229.5,180.5 227.5,180.5 Z"/></g>
<g><path style="opacity:0.999" fill="#d6473d" d="M 227.5,180.5 C 229.5,180.5 231.5,180.5 233.5,180.5C 233.173,190.015 233.506,199.348 234.5,208.5C 235.117,210.229 236.117,211.729 237.5,213C 240.833,213.667 244.167,213.667 247.5,213C 248.308,212.692 248.975,212.192 249.5,211.5C 250.145,201.038 250.811,190.705 251.5,180.5C 251.334,190.506 251.5,200.506 252,210.5C 252.5,200.839 252.666,191.172 252.5,181.5C 253.833,181.5 255.167,181.5 256.5,181.5C 256.174,190.349 256.507,199.016 257.5,207.5C 257.5,208.167 257.5,208.833 257.5,209.5C 256.079,214.09 253.079,217.256 248.5,219C 243.079,219.839 237.746,219.506 232.5,218C 229.894,216.062 228.061,213.562 227,210.5C 226.175,200.325 226.342,190.325 227.5,180.5 Z"/></g>
<g><path style="opacity:0.682" fill="#ea9d9a" d="M 288.5,181.5 C 289.906,181.973 290.573,182.973 290.5,184.5C 289.094,184.027 288.427,183.027 288.5,181.5 Z"/></g>
<g><path style="opacity:1" fill="#d6463c" d="M 29.5,193.5 C 28.8092,200.331 30.1425,206.664 33.5,212.5C 38.3081,213.747 43.1415,213.747 48,212.5C 51.2845,212.7 52.1179,214.2 50.5,217C 27.6777,223.856 18.1777,215.356 22,191.5C 22.2784,190.584 22.7784,189.918 23.5,189.5C 28.4365,185.047 30.4365,186.38 29.5,193.5 Z"/></g>
<g><path style="opacity:0.212" fill="#eed0cf" d="M 49.5,184.5 C 49.5,185.5 49.5,186.5 49.5,187.5C 48.209,187.737 47.209,187.404 46.5,186.5C 47.7777,186.218 48.7777,185.551 49.5,184.5 Z"/></g>
<g><path style="opacity:0.484" fill="#e7a4a4" d="M 175.5,184.5 C 171.366,185.485 167.032,185.818 162.5,185.5C 162.5,189.5 162.5,193.5 162.5,197.5C 161.515,193.366 161.182,189.032 161.5,184.5C 166.167,184.5 170.833,184.5 175.5,184.5 Z"/></g>
<g><path style="opacity:0.498" fill="#e38d8d" d="M 251.5,180.5 C 253.607,179.532 255.941,179.198 258.5,179.5C 258.827,189.681 258.494,199.681 257.5,209.5C 257.5,208.833 257.5,208.167 257.5,207.5C 257.5,198.5 257.5,189.5 257.5,180.5C 255.5,180.5 253.5,180.5 251.5,180.5 Z"/></g>
<g><path style="opacity:0.718" fill="#efa8a4" d="M 108.5,193.5 C 108.179,195.048 107.179,195.715 105.5,195.5C 106.29,194.599 107.29,193.932 108.5,193.5 Z"/></g>
<g><path style="opacity:0.761" fill="#e27e7b" d="M 217.5,188.5 C 219.03,191.695 219.696,195.195 219.5,199C 219.497,201.69 219.164,204.19 218.5,206.5C 218.64,200.464 218.307,194.464 217.5,188.5 Z"/></g>
<g><path style="opacity:0.769" fill="#e37773" d="M 162.5,202.5 C 166.298,201.517 170.298,201.183 174.5,201.5C 174.5,200.5 174.5,199.5 174.5,198.5C 170.298,198.817 166.298,198.483 162.5,197.5C 166.751,196.897 171.084,197.063 175.5,198C 175.966,199.299 175.966,200.799 175.5,202.5C 170.956,202.66 166.622,202.66 162.5,202.5 Z"/></g>
<g><path style="opacity:0.102" fill="#edd8d8" d="M 106.5,200.5 C 106.5,200.833 106.5,201.167 106.5,201.5C 104.5,201.5 102.5,201.5 100.5,201.5C 100.5,205.5 100.5,209.5 100.5,213.5C 103.167,213.5 105.833,213.5 108.5,213.5C 105.713,214.477 102.713,214.81 99.5,214.5C 99.5,209.833 99.5,205.167 99.5,200.5C 101.833,200.5 104.167,200.5 106.5,200.5 Z"/></g>
<g><path style="opacity:0.78" fill="#e99d97" d="M 191.5,209.5 C 192.833,210.167 193.833,211.167 194.5,212.5C 192.5,212.5 191.5,211.5 191.5,209.5 Z"/></g>
<g><path style="opacity:0.812" fill="#e17672" d="M 190.5,217.5 C 196.13,218.292 201.797,218.625 207.5,218.5C 205.359,219.163 203.025,219.497 200.5,219.5C 196.859,219.685 193.526,219.019 190.5,217.5 Z"/></g>
<g><path style="opacity:1" fill="#494747" d="M 56.5,232.5 C 55.1667,233.833 53.8333,233.833 52.5,232.5C 53.8333,231.167 55.1667,231.167 56.5,232.5 Z"/></g>
<g><path style="opacity:0.973" fill="#767474" d="M 99.5,232.5 C 103.161,232.426 103.828,233.426 101.5,235.5C 100.081,234.995 99.4148,233.995 99.5,232.5 Z"/></g>
<g><path style="opacity:0.02" fill="#fefefd" d="M 106.5,233.5 C 107.833,234.167 107.833,234.167 106.5,233.5 Z"/></g>
<g><path style="opacity:1" fill="#686565" d="M 237.5,232.5 C 238.5,232.5 239.5,232.5 240.5,232.5C 239.754,236.31 238.754,236.31 237.5,232.5 Z"/></g>
<g><path style="opacity:0.02" fill="#fefefd" d="M 97.5,234.5 C 98.8333,235.167 98.8333,235.167 97.5,234.5 Z"/></g>
<g><path style="opacity:0.02" fill="#fefefd" d="M 106.5,234.5 C 106.5,234.833 106.5,235.167 106.5,235.5C 105.83,235.019 105.83,234.685 106.5,234.5 Z"/></g>
<g><path style="opacity:0.042" fill="#f2eded" d="M 52.5,236.5 C 53.3864,235.224 54.3864,235.224 55.5,236.5C 55.3764,237.107 55.0431,237.44 54.5,237.5C 54.1583,236.662 53.4916,236.328 52.5,236.5 Z"/></g>
<g><path style="opacity:0.02" fill="#f9f7f7" d="M 130.5,236.5 C 130.5,236.167 130.5,235.833 130.5,235.5C 131.833,235.5 133.167,235.5 134.5,235.5C 134.5,236.167 134.5,236.833 134.5,237.5C 133.833,237.5 133.167,237.5 132.5,237.5C 132.158,236.662 131.492,236.328 130.5,236.5 Z"/></g>
<g><path style="opacity:0.02" fill="#f9f7f7" d="M 200.5,236.5 C 201.568,235.566 202.901,235.232 204.5,235.5C 204.5,236.833 203.833,237.5 202.5,237.5C 202.158,236.662 201.492,236.328 200.5,236.5 Z"/></g>
<g><path style="opacity:1" fill="#282727" d="M 106.5,236.5 C 107.995,236.989 109.329,237.655 110.5,238.5C 109.5,238.5 108.5,238.5 107.5,238.5C 107.198,241.059 107.532,243.393 108.5,245.5C 109.167,246.167 109.833,246.833 110.5,247.5C 109.833,247.5 109.5,247.833 109.5,248.5C 108.209,248.737 107.209,248.404 106.5,247.5C 106.305,243.622 106.305,239.956 106.5,236.5 Z"/></g>
<g><path style="opacity:0.094" fill="#d1cccc" d="M 106.5,236.5 C 106.5,236.167 106.5,235.833 106.5,235.5C 109.01,235.927 111.343,236.593 113.5,237.5C 112.508,237.328 111.842,237.662 111.5,238.5C 111.167,238.5 110.833,238.5 110.5,238.5C 109.329,237.655 107.995,236.989 106.5,236.5 Z"/></g>
<g><path style="opacity:0.137" fill="#dcd8d8" d="M 139.5,237.5 C 138.508,237.328 137.842,237.662 137.5,238.5C 136.115,237.698 136.282,237.031 138,236.5C 138.765,236.57 139.265,236.903 139.5,237.5 Z"/></g>
<g><path style="opacity:0.02" fill="#fefefd" d="M 165.5,237.5 C 164.833,236.167 164.833,236.167 165.5,237.5 Z"/></g>
<g><path style="opacity:0.086" fill="#d4cfcf" d="M 222.5,237.5 C 224.5,236.167 226.5,236.167 228.5,237.5C 227.508,237.328 226.842,237.662 226.5,238.5C 225.833,238.833 225.167,239.167 224.5,239.5C 224.5,238.167 223.833,237.5 222.5,237.5 Z"/></g>
<g><path style="opacity:0.243" fill="#c6c3c3" d="M 264.5,237.5 C 265.919,236.549 267.585,236.216 269.5,236.5C 269.5,237.5 269.5,238.5 269.5,239.5C 267.833,239.5 266.167,239.5 264.5,239.5C 266.167,239.5 267.833,239.5 269.5,239.5C 269.5,238.5 269.5,237.5 269.5,236.5C 267.585,236.216 265.919,236.549 264.5,237.5 Z"/></g>
<g><path style="opacity:0.961" fill="#817d7d" d="M 66.5,237.5 C 64.3023,237.409 63.9689,238.075 65.5,239.5C 64.5,239.5 63.5,239.5 62.5,239.5C 62.5,238.833 62.1667,238.5 61.5,238.5C 62.8786,236.403 64.5453,236.07 66.5,237.5 Z"/></g>
<g><path style="opacity:0.02" fill="#fefefd" d="M 125.5,237.5 C 126.833,238.167 126.833,238.167 125.5,237.5 Z"/></g>
<g><path style="opacity:0.02" fill="#fefefd" d="M 134.5,237.5 C 135.833,238.167 135.833,238.167 134.5,237.5 Z"/></g>
<g><path style="opacity:1" fill="#464444" d="M 160.5,236.5 C 160.918,237.222 161.584,237.722 162.5,238C 161.584,238.278 160.918,238.778 160.5,239.5C 160.5,241.5 160.5,243.5 160.5,245.5C 161.167,246.167 161.833,246.833 162.5,247.5C 161.198,248.807 159.865,248.807 158.5,247.5C 157.796,244.296 157.13,241.129 156.5,238C 157.597,235.941 158.93,235.441 160.5,236.5 Z"/></g>
<g><path style="opacity:0.635" fill="#908e8e" d="M 182.5,237.5 C 183.5,237.5 184.5,237.5 185.5,237.5C 186.167,238.167 186.833,238.833 187.5,239.5C 186.5,239.5 185.5,239.5 184.5,239.5C 183.833,238.833 183.167,238.167 182.5,237.5 Z"/></g>
<g><path style="opacity:0.02" fill="#fefefd" d="M 195.5,237.5 C 196.833,238.167 196.833,238.167 195.5,237.5 Z"/></g>
<g><path style="opacity:0.094" fill="#eae6e6" d="M 233.5,237.5 C 234.209,236.596 235.209,236.263 236.5,236.5C 236.768,238.099 236.434,239.432 235.5,240.5C 235.715,238.821 235.048,237.821 233.5,237.5 Z"/></g>
<g><path style="opacity:0.02" fill="#fefefd" d="M 270.5,237.5 C 271.833,238.167 271.833,238.167 270.5,237.5 Z"/></g>
<g><path style="opacity:1" fill="#333232" d="M 66.5,237.5 C 68.8061,238.375 69.4728,239.708 68.5,241.5C 67.2223,241.218 66.2223,240.551 65.5,239.5C 63.9689,238.075 64.3023,237.409 66.5,237.5 Z"/></g>
<g><path style="opacity:1" fill="#494848" d="M 82.5,237.5 C 83.4731,239.948 83.8064,242.615 83.5,245.5C 84.1667,246.167 84.8333,246.833 85.5,247.5C 85.5,247.833 85.5,248.167 85.5,248.5C 84.209,248.737 83.209,248.404 82.5,247.5C 81.2185,244.064 81.2185,240.731 82.5,237.5 Z"/></g>
<g><path style="opacity:0.027" fill="#f7eeee" d="M 84.5,237.5 C 85.6291,239.628 85.7958,241.961 85,244.5C 84.5034,242.19 84.3367,239.857 84.5,237.5 Z"/></g>
<g><path style="opacity:1" fill="#545252" d="M 92.5,236.5 C 94.205,237.535 95.8716,237.535 97.5,236.5C 98.3857,237.325 98.719,238.325 98.5,239.5C 97.5,239.5 96.5,239.5 95.5,239.5C 95.8919,242.722 95.3919,245.722 94,248.5C 92.5761,244.703 92.0761,240.703 92.5,236.5 Z"/></g>
<g><path style="opacity:0.039" fill="#f6efef" d="M 116.5,240.5 C 116.351,239.448 116.517,238.448 117,237.5C 117.74,238.749 117.573,239.749 116.5,240.5 Z"/></g>
<g><path style="opacity:0.345" fill="#b8b4b4" d="M 120.5,241.5 C 120.657,240.127 120.49,238.793 120,237.5C 119.79,239.058 119.29,240.391 118.5,241.5C 119.29,240.391 119.79,239.058 120,237.5C 120.49,238.793 120.657,240.127 120.5,241.5 Z"/></g>
<g><path style="opacity:0.02" fill="#fefefd" d="M 122.5,238.5 C 123.525,238.897 123.692,239.563 123,240.5C 122.536,239.906 122.369,239.239 122.5,238.5 Z"/></g>
<g><path style="opacity:0.039" fill="#f4ebeb" d="M 142.5,240.5 C 142.351,239.448 142.517,238.448 143,237.5C 143.74,238.749 143.573,239.749 142.5,240.5 Z"/></g>
<g><path style="opacity:0.333" fill="#b6b3b3" d="M 146.5,241.5 C 146.657,240.127 146.49,238.793 146,237.5C 145.79,239.058 145.29,240.391 144.5,241.5C 145.29,240.391 145.79,239.058 146,237.5C 146.49,238.793 146.657,240.127 146.5,241.5 Z"/></g>
<g><path style="opacity:0.137" fill="#c9c5c5" d="M 150.5,237.5 C 151.919,236.549 153.585,236.216 155.5,236.5C 155.5,237.5 155.5,238.5 155.5,239.5C 153.901,239.232 152.568,239.566 151.5,240.5C 152.568,239.566 153.901,239.232 155.5,239.5C 155.5,238.5 155.5,237.5 155.5,236.5C 153.585,236.216 151.919,236.549 150.5,237.5 Z"/></g>
<g><path style="opacity:1" fill="#525050" d="M 172.5,239.5 C 172.631,240.376 172.298,241.043 171.5,241.5C 170.818,240.757 170.151,240.091 169.5,239.5C 168.833,239.5 168.167,239.5 167.5,239.5C 166.957,239.56 166.624,239.893 166.5,240.5C 167.243,241.182 167.909,241.849 168.5,242.5C 167.596,243.209 167.263,244.209 167.5,245.5C 168.5,246.167 169.5,246.833 170.5,247.5C 169.292,248.234 167.959,248.567 166.5,248.5C 164.394,246.281 163.394,243.615 163.5,240.5C 164.401,239.71 165.068,238.71 165.5,237.5C 168.603,235.856 170.936,236.523 172.5,239.5 Z"/></g>
<g><path style="opacity:1" fill="#4e4c4c" d="M 187.5,239.5 C 186.833,238.833 186.167,238.167 185.5,237.5C 186.672,236.295 188.005,236.295 189.5,237.5C 190.915,241.317 190.748,244.984 189,248.5C 187.608,245.722 187.108,242.722 187.5,239.5 Z"/></g>
<g><path style="opacity:0.02" fill="#fefefd" d="M 191.5,238.5 C 192.833,239.167 192.833,239.167 191.5,238.5 Z"/></g>
<g><path style="opacity:1" fill="#474545" d="M 228.5,237.5 C 229.167,238.167 229.833,238.833 230.5,239.5C 230.491,241.308 230.991,242.975 232,244.5C 232.977,242.26 233.477,239.927 233.5,237.5C 235.048,237.821 235.715,238.821 235.5,240.5C 235.5,241.167 235.5,241.833 235.5,242.5C 234.264,244.611 232.764,246.611 231,248.5C 229.374,247.045 228.208,245.378 227.5,243.5C 227.371,241.784 227.038,240.117 226.5,238.5C 226.842,237.662 227.508,237.328 228.5,237.5 Z"/></g>
<g><path style="opacity:0.02" fill="#fefefd" d="M 230.5,239.5 C 231.077,238.227 231.743,238.227 232.5,239.5C 232.03,240.463 231.363,240.463 230.5,239.5 Z"/></g>
<g><path style="opacity:0.447" fill="#706d6d" d="M 237.5,236.5 C 238.5,236.5 239.5,236.5 240.5,236.5C 240.924,240.703 240.424,244.703 239,248.5C 237.576,244.703 237.076,240.703 237.5,236.5 Z"/></g>
<g><path style="opacity:0.027" fill="#fbf3f3" d="M 242.5,239.5 C 241.475,239.103 241.308,238.437 242,237.5C 242.464,238.094 242.631,238.761 242.5,239.5 Z"/></g>
<g><path style="opacity:1" fill="#545151" d="M 260.5,241.5 C 259.222,241.218 258.222,240.551 257.5,239.5C 256.833,239.5 256.167,239.5 255.5,239.5C 254.957,239.56 254.624,239.893 254.5,240.5C 255.243,241.182 255.909,241.849 256.5,242.5C 255.596,243.209 255.263,244.209 255.5,245.5C 256.5,246.167 257.5,246.833 258.5,247.5C 255.22,248.916 252.887,247.916 251.5,244.5C 251.063,239.123 253.397,236.623 258.5,237C 259.687,238.019 260.687,239.186 261.5,240.5C 261.376,241.107 261.043,241.44 260.5,241.5 Z"/></g>
<g><path style="opacity:1" fill="#3f3d3d" d="M 71.5,239.5 C 72.1667,241.167 72.8333,242.833 73.5,244.5C 73.5,245.167 73.8333,245.5 74.5,245.5C 75.1667,246.167 75.8333,246.833 76.5,247.5C 76.5,247.833 76.5,248.167 76.5,248.5C 70.6862,247.81 69.0195,244.81 71.5,239.5 Z"/></g>
<g><path style="opacity:0.635" fill="#767373" d="M 78.5,239.5 C 76.8333,239.5 75.1667,239.5 73.5,239.5C 73.5,241.167 73.5,242.833 73.5,244.5C 72.8333,242.833 72.1667,241.167 71.5,239.5C 71.5774,238.25 72.244,237.417 73.5,237C 75.1341,236.506 76.8008,236.34 78.5,236.5C 78.5,237.5 78.5,238.5 78.5,239.5 Z"/></g>
<g><path style="opacity:0.02" fill="#fefefd" d="M 78.5,239.5 C 79.8333,240.167 79.8333,240.167 78.5,239.5 Z"/></g>
<g><path style="opacity:1" fill="#575555" d="M 134.5,235.5 C 133.167,234.167 131.833,234.167 130.5,235.5C 129.167,235.833 129.167,236.167 130.5,236.5C 130.842,237.338 131.508,237.672 132.5,237.5C 132.842,238.338 133.508,238.672 134.5,238.5C 134.833,239.5 135.5,240.167 136.5,240.5C 136.832,246.51 134.166,248.844 128.5,247.5C 128.167,246.833 127.833,246.167 127.5,245.5C 129.812,245.751 132.145,245.251 134.5,244C 133.692,242.294 132.359,241.461 130.5,241.5C 127.67,239.638 126.837,236.971 128,233.5C 130.707,231.114 133.54,230.948 136.5,233C 135.934,233.995 135.267,234.828 134.5,235.5 Z"/></g>
<g><path style="opacity:0.02" fill="#fefefd" d="M 137.5,239.5 C 136.833,240.167 136.833,240.167 137.5,239.5 Z"/></g>
<g><path style="opacity:0.02" fill="#ede6e6" d="M 160.5,236.5 C 161.5,236.5 162.5,236.5 163.5,236.5C 163.5,237.833 163.5,239.167 163.5,240.5C 163.167,240.5 162.833,240.5 162.5,240.5C 162.158,239.662 161.492,239.328 160.5,239.5C 160.918,238.778 161.584,238.278 162.5,238C 161.584,237.722 160.918,237.222 160.5,236.5 Z"/></g>
<g><path style="opacity:0.992" fill="#5f5c5c" d="M 182.5,237.5 C 183.167,238.167 183.833,238.833 184.5,239.5C 184.806,242.385 184.473,245.052 183.5,247.5C 182.833,244.833 182.167,242.167 181.5,239.5C 180.5,239.5 179.5,239.5 178.5,239.5C 178.777,242.448 178.444,245.281 177.5,248C 176.551,248.617 175.718,248.451 175,247.5C 174.333,244.167 174.333,240.833 175,237.5C 177.548,237.286 180.048,237.286 182.5,237.5 Z"/></g>
<g><path style="opacity:1" fill="#504e4e" d="M 204.5,235.5 C 202.965,234.212 201.299,234.212 199.5,235.5C 199.624,236.107 199.957,236.44 200.5,236.5C 200.842,237.338 201.508,237.672 202.5,237.5C 205.893,239.026 207.226,241.693 206.5,245.5C 204.197,248.003 201.531,248.67 198.5,247.5C 198.167,246.833 197.833,246.167 197.5,245.5C 199.259,245.046 201.259,245.046 203.5,245.5C 203.5,244.167 203.5,242.833 203.5,241.5C 202.5,241.5 201.5,241.5 200.5,241.5C 197.67,239.638 196.837,236.971 198,233.5C 200.707,231.114 203.54,230.948 206.5,233C 205.934,233.995 205.267,234.828 204.5,235.5 Z"/></g>
<g><path style="opacity:1" fill="#514f4f" d="M 245.5,244.5 C 246.448,245.978 247.781,246.978 249.5,247.5C 248.833,247.5 248.5,247.833 248.5,248.5C 245.911,248.539 243.911,247.539 242.5,245.5C 242.5,243.5 242.5,241.5 242.5,239.5C 245.094,236.347 248.094,235.847 251.5,238C 249.75,239.319 247.75,239.819 245.5,239.5C 245.5,241.167 245.5,242.833 245.5,244.5 Z"/></g>
<g><path style="opacity:1" fill="#525050" d="M 52.5,232.5 C 53.8333,233.833 55.1667,233.833 56.5,232.5C 57.0431,232.56 57.3764,232.893 57.5,233.5C 55.5,234.167 53.5,234.833 51.5,235.5C 51.6236,236.107 51.9569,236.44 52.5,236.5C 52.8417,237.338 53.5084,237.672 54.5,237.5C 57.8926,239.026 59.2259,241.693 58.5,245.5C 56.1972,248.003 53.5305,248.67 50.5,247.5C 48.9689,246.075 49.3023,245.409 51.5,245.5C 52.8333,245.5 54.1667,245.5 55.5,245.5C 55.7373,244.209 55.404,243.209 54.5,242.5C 51.6744,241.403 49.6744,239.403 48.5,236.5C 48.9655,234.192 50.2988,232.858 52.5,232.5 Z"/></g>
<g><path style="opacity:0.953" fill="#494646" d="M 89.5,237.5 C 89.5,240.5 89.5,243.5 89.5,246.5C 88.209,246.737 87.209,246.404 86.5,245.5C 86.3359,242.813 86.5026,240.146 87,237.5C 87.9772,236.226 88.8106,236.226 89.5,237.5 Z"/></g>
<g><path style="opacity:0.922" fill="#686565" d="M 100.5,236.5 C 102.252,236.418 103.252,237.251 103.5,239C 102.281,241.384 102.281,243.717 103.5,246C 102.78,248.122 101.613,248.622 100,247.5C 99.2446,243.745 99.4113,240.078 100.5,236.5 Z"/></g>
<g><path style="opacity:0.62" fill="#777575" d="M 106.5,236.5 C 106.305,239.956 106.305,243.622 106.5,247.5C 105.717,244.491 105.05,241.324 104.5,238C 104.836,236.97 105.503,236.47 106.5,236.5 Z"/></g>
<g><path style="opacity:0.38" fill="#a5a2a2" d="M 110.5,238.5 C 110.5,238.833 110.5,239.167 110.5,239.5C 108.692,240.918 108.025,242.918 108.5,245.5C 107.532,243.393 107.198,241.059 107.5,238.5C 108.5,238.5 109.5,238.5 110.5,238.5 Z"/></g>
<g><path style="opacity:1" fill="#504f4f" d="M 113.5,237.5 C 114.728,238.306 115.728,239.306 116.5,240.5C 116.427,242.027 117.094,243.027 118.5,243.5C 118.5,244.167 118.833,244.5 119.5,244.5C 119.5,245.167 119.5,245.833 119.5,246.5C 118.5,246.833 117.833,247.5 117.5,248.5C 116.833,247.833 116.167,247.167 115.5,246.5C 114.737,244.632 113.737,242.965 112.5,241.5C 112.672,240.508 112.338,239.842 111.5,239.5C 111.5,239.167 111.5,238.833 111.5,238.5C 111.842,237.662 112.508,237.328 113.5,237.5 Z"/></g>
<g><path style="opacity:1" fill="#4a4848" d="M 139.5,237.5 C 140.728,238.306 141.728,239.306 142.5,240.5C 142.5,241.5 142.5,242.5 142.5,243.5C 142.782,244.778 143.449,245.778 144.5,246.5C 144.167,247.167 143.833,247.833 143.5,248.5C 142.833,247.833 142.167,247.167 141.5,246.5C 140.833,245.5 140.167,244.5 139.5,243.5C 139.672,242.508 139.338,241.842 138.5,241.5C 138.672,240.508 138.338,239.842 137.5,239.5C 137.5,239.167 137.5,238.833 137.5,238.5C 137.842,237.662 138.508,237.328 139.5,237.5 Z"/></g>
<g><path style="opacity:0.408" fill="#aaa8a8" d="M 167.5,239.5 C 168.167,240.833 168.833,240.833 169.5,239.5C 170.151,240.091 170.818,240.757 171.5,241.5C 172.298,241.043 172.631,240.376 172.5,239.5C 173.598,240.601 173.765,241.934 173,243.5C 171.644,242.62 170.144,242.286 168.5,242.5C 167.909,241.849 167.243,241.182 166.5,240.5C 166.624,239.893 166.957,239.56 167.5,239.5 Z"/></g>
<g><path style="opacity:0.02" fill="#fbf8f8" d="M 225.5,241.5 C 224.637,242.463 223.97,242.463 223.5,241.5C 224.257,240.227 224.923,240.227 225.5,241.5 Z"/></g>
<g><path style="opacity:0.027" fill="#f8f1f1" d="M 249.5,243.5 C 248.791,244.404 247.791,244.737 246.5,244.5C 246.5,243.167 246.5,241.833 246.5,240.5C 247.833,240.5 249.167,240.5 250.5,240.5C 250.737,241.791 250.404,242.791 249.5,243.5 Z M 249.5,243.5 C 247.663,243.361 247.33,242.694 248.5,241.5C 249.298,241.957 249.631,242.624 249.5,243.5 Z"/></g>
<g><path style="opacity:0.027" fill="#f8f0f0" d="M 78.5,240.5 C 77.791,241.404 76.791,241.737 75.5,241.5C 74.9553,245.172 74.6219,244.838 74.5,240.5C 75.8333,240.5 77.1667,240.5 78.5,240.5 Z"/></g>
<g><path style="opacity:0.827" fill="#535151" d="M 82.5,237.5 C 81.2185,240.731 81.2185,244.064 82.5,247.5C 81.2132,246.129 80.5465,244.295 80.5,242C 80.8333,240.167 81.1667,238.333 81.5,236.5C 82.1067,236.624 82.44,236.957 82.5,237.5 Z"/></g>
<g><path style="opacity:0.027" fill="#f8f0f0" d="M 96.5,240.5 C 98.9783,242.483 99.1449,244.816 97,247.5C 96.5034,245.19 96.3367,242.857 96.5,240.5 Z"/></g>
<g><path style="opacity:0.027" fill="#f7f0f0" d="M 110.5,239.5 C 110.833,239.5 111.167,239.5 111.5,239.5C 111.5,240.167 111.5,240.833 111.5,241.5C 110.732,242.263 110.232,243.263 110,244.5C 109.36,242.735 109.527,241.068 110.5,239.5 Z"/></g>
<g><path style="opacity:0.02" fill="#fefefd" d="M 130.5,241.5 C 130.5,241.833 130.5,242.167 130.5,242.5C 129.83,242.019 129.83,241.685 130.5,241.5 Z"/></g>
<g><path style="opacity:0.027" fill="#f5ecec" d="M 162.5,240.5 C 162.657,241.873 162.49,243.207 162,244.5C 161.235,242.934 161.402,241.601 162.5,240.5 Z"/></g>
<g><path style="opacity:0.655" fill="#777575" d="M 181.5,239.5 C 182.167,242.167 182.833,244.833 183.5,247.5C 183.44,248.043 183.107,248.376 182.5,248.5C 181.516,245.572 181.183,242.572 181.5,239.5 Z"/></g>
<g><path style="opacity:0.041" fill="#efe8e8" d="M 185.5,240.5 C 186.629,242.628 186.796,244.961 186,247.5C 185.503,245.19 185.337,242.857 185.5,240.5 Z"/></g>
<g><path style="opacity:0.02" fill="#fefefd" d="M 200.5,241.5 C 200.5,241.833 200.5,242.167 200.5,242.5C 199.83,242.019 199.83,241.685 200.5,241.5 Z"/></g>
<g><path style="opacity:1" fill="#555353" d="M 216.5,241.5 C 215.222,241.218 214.222,240.551 213.5,239.5C 212.833,239.5 212.167,239.5 211.5,239.5C 210.957,239.56 210.624,239.893 210.5,240.5C 211.243,241.182 211.909,241.849 212.5,242.5C 211.596,243.209 211.263,244.209 211.5,245.5C 212.5,246.167 213.5,246.833 214.5,247.5C 213.735,247.923 212.902,248.257 212,248.5C 210.357,247.685 208.857,246.685 207.5,245.5C 207.07,242.138 208.07,239.305 210.5,237C 213.792,236.104 216.125,237.271 217.5,240.5C 217.376,241.107 217.043,241.44 216.5,241.5 Z"/></g>
<g><path style="opacity:0.62" fill="#8d8a8a" d="M 211.5,239.5 C 212.167,240.833 212.833,240.833 213.5,239.5C 214.222,240.551 215.222,241.218 216.5,241.5C 216.5,241.833 216.5,242.167 216.5,242.5C 215.167,242.5 213.833,242.5 212.5,242.5C 211.909,241.849 211.243,241.182 210.5,240.5C 210.624,239.893 210.957,239.56 211.5,239.5 Z"/></g>
<g><path style="opacity:1" fill="#686464" d="M 222.5,237.5 C 223.833,237.5 224.5,238.167 224.5,239.5C 222.78,241.658 221.947,244.325 222,247.5C 221.282,248.451 220.449,248.617 219.5,248C 218.378,244.591 218.211,241.091 219,237.5C 220.145,236.316 221.312,236.316 222.5,237.5 Z"/></g>
<g><path style="opacity:0.027" fill="#f8efee" d="M 225.5,241.5 C 226.833,242.167 226.833,242.167 225.5,241.5 Z"/></g>
<g><path style="opacity:0.62" fill="#8c8989" d="M 255.5,239.5 C 256.167,240.833 256.833,240.833 257.5,239.5C 258.222,240.551 259.222,241.218 260.5,241.5C 259.432,242.434 258.099,242.768 256.5,242.5C 255.909,241.849 255.243,241.182 254.5,240.5C 254.624,239.893 254.957,239.56 255.5,239.5 Z"/></g>
<g><path style="opacity:1" fill="#545252" d="M 264.5,237.5 C 265.873,237.343 267.207,237.51 268.5,238C 266.942,238.21 265.609,238.71 264.5,239.5C 270.49,241.108 271.49,244.108 267.5,248.5C 264.243,248.826 262.743,247.493 263,244.5C 264.388,245.554 265.888,245.72 267.5,245C 265.373,243.949 263.707,242.449 262.5,240.5C 262.453,238.962 263.12,237.962 264.5,237.5 Z"/></g>
<g><path style="opacity:0.02" fill="#fefefd" d="M 50.5,242.5 C 51.8333,243.167 51.8333,243.167 50.5,242.5 Z"/></g>
<g><path style="opacity:0.042" fill="#f1eaea" d="M 54.5,242.5 C 54.3605,244.337 53.6939,244.67 52.5,243.5C 52.9569,242.702 53.6236,242.369 54.5,242.5 Z"/></g>
<g><path style="opacity:0.027" fill="#f8efee" d="M 68.5,242.5 C 69.8333,243.167 69.8333,243.167 68.5,242.5 Z"/></g>
<g><path style="opacity:0.02" fill="#fdf8f8" d="M 111.5,241.5 C 111.833,241.5 112.167,241.5 112.5,241.5C 112.167,244.167 111.833,244.167 111.5,241.5 Z"/></g>
<g><path style="opacity:0.986" fill="#333131" d="M 120.5,241.5 C 120.5,242.5 120.5,243.5 120.5,244.5C 120.167,244.5 119.833,244.5 119.5,244.5C 118.833,244.5 118.5,244.167 118.5,243.5C 118.5,242.833 118.5,242.167 118.5,241.5C 119.29,240.391 119.79,239.058 120,237.5C 120.49,238.793 120.657,240.127 120.5,241.5 Z"/></g>
<g><path style="opacity:0.02" fill="#fefefd" d="M 129.5,242.5 C 129.103,243.525 128.437,243.692 127.5,243C 128.094,242.536 128.761,242.369 129.5,242.5 Z"/></g>
<g><path style="opacity:0.039" fill="#f2eaea" d="M 130.5,242.5 C 132.337,242.639 132.67,243.306 131.5,244.5C 130.702,244.043 130.369,243.376 130.5,242.5 Z"/></g>
<g><path style="opacity:0.02" fill="#fcf8f8" d="M 138.5,241.5 C 138.328,242.492 138.662,243.158 139.5,243.5C 139.631,244.376 139.298,245.043 138.5,245.5C 137.218,244.042 137.218,242.708 138.5,241.5 Z"/></g>
<g><path style="opacity:0.027" fill="#f8efee" d="M 148.5,242.5 C 147.833,243.167 147.833,243.167 148.5,242.5 Z"/></g>
<g><path style="opacity:1" fill="#595757" d="M 150.5,237.5 C 155.682,237.557 155.682,238.224 150.5,239.5C 150.624,240.107 150.957,240.44 151.5,240.5C 157.305,241.913 157.972,244.58 153.5,248.5C 149.981,248.813 148.647,247.48 149.5,244.5C 150.768,245.428 152.101,245.595 153.5,245C 152.09,243.628 150.423,242.795 148.5,242.5C 148.12,240.302 148.787,238.635 150.5,237.5 Z"/></g>
<g><path style="opacity:0.027" fill="#f6eded" d="M 179.5,240.5 C 180.629,242.628 180.796,244.961 180,247.5C 179.503,245.19 179.337,242.857 179.5,240.5 Z"/></g>
<g><path style="opacity:0.027" fill="#f8efee" d="M 216.5,242.5 C 217.833,243.167 217.833,243.167 216.5,242.5 Z"/></g>
<g><path style="opacity:0.039" fill="#efe8e7" d="M 67.5,244.5 C 66.448,244.649 65.448,244.483 64.5,244C 65.7494,243.26 66.7494,243.427 67.5,244.5 Z"/></g>
<g><path style="opacity:0.02" fill="#fefefd" d="M 76.5,243.5 C 77.8333,244.167 77.8333,244.167 76.5,243.5 Z"/></g>
<g><path style="opacity:0.961" fill="#343232" d="M 146.5,241.5 C 146.5,242.5 146.5,243.5 146.5,244.5C 146.167,244.5 145.833,244.5 145.5,244.5C 144.662,244.158 144.328,243.492 144.5,242.5C 144.5,242.167 144.5,241.833 144.5,241.5C 145.29,240.391 145.79,239.058 146,237.5C 146.49,238.793 146.657,240.127 146.5,241.5 Z"/></g>
<g><path style="opacity:0.043" fill="#eee8e8" d="M 171.5,244.5 C 170.448,244.649 169.448,244.483 168.5,244C 169.749,243.26 170.749,243.427 171.5,244.5 Z"/></g>
<g><path style="opacity:0.027" fill="#f9f2f2" d="M 200.5,242.5 C 202.337,242.639 202.67,243.306 201.5,244.5C 200.702,244.043 200.369,243.376 200.5,242.5 Z"/></g>
<g><path style="opacity:0.043" fill="#eee8e8" d="M 215.5,244.5 C 214.448,244.649 213.448,244.483 212.5,244C 213.749,243.26 214.749,243.427 215.5,244.5 Z"/></g>
<g><path style="opacity:0.02" fill="#fefefd" d="M 227.5,243.5 C 227.631,244.239 227.464,244.906 227,245.5C 226.308,244.563 226.475,243.897 227.5,243.5 Z"/></g>
<g><path style="opacity:0.044" fill="#efeaea" d="M 259.5,244.5 C 258.448,244.649 257.448,244.483 256.5,244C 257.749,243.26 258.749,243.427 259.5,244.5 Z"/></g>
<g><path style="opacity:1" fill="#525050" d="M 61.5,238.5 C 62.1667,238.5 62.5,238.833 62.5,239.5C 63.5,240.833 64.5,240.833 65.5,239.5C 66.2223,240.551 67.2223,241.218 68.5,241.5C 68.5,241.833 68.5,242.167 68.5,242.5C 66.4727,242.338 64.4727,242.505 62.5,243C 63.2524,243.671 63.5858,244.504 63.5,245.5C 64.5,246.167 65.5,246.833 66.5,247.5C 65.7354,247.923 64.9021,248.257 64,248.5C 62.3566,247.685 60.8566,246.685 59.5,245.5C 59.1706,242.772 59.8372,240.438 61.5,238.5 Z"/></g>
<g><path style="opacity:0.027" fill="#f8efee" d="M 112.5,244.5 C 113.833,245.167 113.833,245.167 112.5,244.5 Z"/></g>
<g><path style="opacity:0.02" fill="#fefefd" d="M 120.5,244.5 C 121.833,245.167 121.833,245.167 120.5,244.5 Z"/></g>
<g><path style="opacity:0.784" fill="#918e8e" d="M 144.5,242.5 C 144.328,243.492 144.662,244.158 145.5,244.5C 145.5,245.167 145.5,245.833 145.5,246.5C 145.167,246.5 144.833,246.5 144.5,246.5C 143.449,245.778 142.782,244.778 142.5,243.5C 143.167,243.167 143.833,242.833 144.5,242.5 Z"/></g>
<g><path style="opacity:0.345" fill="#b4b2b2" d="M 51.5,245.5 C 49.3023,245.409 48.9689,246.075 50.5,247.5C 48.9519,247.179 48.2852,246.179 48.5,244.5C 49.791,244.263 50.791,244.596 51.5,245.5 Z"/></g>
<g><path style="opacity:0.027" fill="#f8efee" d="M 58.5,245.5 C 58.8333,245.5 59.1667,245.5 59.5,245.5C 59.3147,246.17 58.9813,246.17 58.5,245.5 Z"/></g>
<g><path style="opacity:0.784" fill="#918e8e" d="M 67.5,244.5 C 70.0155,245.86 69.6822,246.86 66.5,247.5C 65.5,246.833 64.5,246.167 63.5,245.5C 65.099,245.768 66.4324,245.434 67.5,244.5 Z"/></g>
<g><path style="opacity:0.635" fill="#a9a5a5" d="M 89.5,237.5 C 90.6408,240.64 90.8075,243.973 90,247.5C 88.7012,247.966 87.2012,247.966 85.5,247.5C 84.8333,246.833 84.1667,246.167 83.5,245.5C 84.5,245.5 85.5,245.5 86.5,245.5C 87.209,246.404 88.209,246.737 89.5,246.5C 89.5,243.5 89.5,240.5 89.5,237.5 Z"/></g>
<g><path style="opacity:0.086" fill="#d1cbcb" d="M 108.5,245.5 C 109.675,245.281 110.675,245.614 111.5,246.5C 111.376,247.107 111.043,247.44 110.5,247.5C 109.833,246.833 109.167,246.167 108.5,245.5 Z"/></g>
<g><path style="opacity:0.02" fill="#fdf8f8" d="M 146.5,244.5 C 147.833,245.167 147.833,245.833 146.5,246.5C 146.5,245.833 146.5,245.167 146.5,244.5 Z"/></g>
<g><path style="opacity:0.827" fill="#8a8888" d="M 171.5,244.5 C 174.015,245.86 173.682,246.86 170.5,247.5C 169.5,246.833 168.5,246.167 167.5,245.5C 169.099,245.768 170.432,245.434 171.5,244.5 Z"/></g>
<g><path style="opacity:0.027" fill="#f8efee" d="M 206.5,245.5 C 206.833,245.5 207.167,245.5 207.5,245.5C 207.315,246.17 206.981,246.17 206.5,245.5 Z"/></g>
<g><path style="opacity:0.827" fill="#8a8888" d="M 215.5,244.5 C 218.015,245.86 217.682,246.86 214.5,247.5C 213.5,246.833 212.5,246.167 211.5,245.5C 213.099,245.768 214.432,245.434 215.5,244.5 Z"/></g>
<g><path style="opacity:0.02" fill="#fcf9f9" d="M 235.5,242.5 C 236.613,243.946 236.78,245.613 236,247.5C 235.5,247 235,246.5 234.5,246C 235.337,244.989 235.67,243.822 235.5,242.5 Z"/></g>
<g><path style="opacity:0.365" fill="#959292" d="M 245.5,244.5 C 245.833,244.5 246.167,244.5 246.5,244.5C 248.05,245.72 249.716,245.72 251.5,244.5C 251.573,246.027 250.906,247.027 249.5,247.5C 247.781,246.978 246.448,245.978 245.5,244.5 Z"/></g>
<g><path style="opacity:0.827" fill="#8c8888" d="M 259.5,244.5 C 262.015,245.86 261.682,246.86 258.5,247.5C 257.5,246.833 256.5,246.167 255.5,245.5C 257.099,245.768 258.432,245.434 259.5,244.5 Z"/></g>
<g><path style="opacity:0.722" fill="#8f8c8c" d="M 76.5,247.5 C 75.8333,246.833 75.1667,246.167 74.5,245.5C 76.1439,245.714 77.6439,245.38 79,244.5C 79.5192,246.489 78.6859,247.489 76.5,247.5 Z"/></g>
<g><path style="opacity:0.02" fill="#fefefd" d="M 119.5,246.5 C 120.833,247.167 120.833,247.167 119.5,246.5 Z"/></g>
<g><path style="opacity:0.086" fill="#c7c2c2" d="M 127.5,245.5 C 127.833,246.167 128.167,246.833 128.5,247.5C 126.576,247.289 126.243,246.623 127.5,245.5 Z"/></g>
<g><path style="opacity:0.02" fill="#fefefd" d="M 145.5,246.5 C 145.833,246.5 146.167,246.5 146.5,246.5C 146.315,247.17 145.981,247.17 145.5,246.5 Z"/></g>
<g><path style="opacity:0.333" fill="#aca9a9" d="M 160.5,245.5 C 161.675,245.281 162.675,245.614 163.5,246.5C 163.376,247.107 163.043,247.44 162.5,247.5C 161.833,246.833 161.167,246.167 160.5,245.5 Z"/></g>
<g><path style="opacity:0.02" fill="#fefefd" d="M 191.5,246.5 C 192.833,247.167 192.833,247.167 191.5,246.5 Z"/></g>
<g><path style="opacity:0.086" fill="#c6c1c1" d="M 197.5,245.5 C 197.833,246.167 198.167,246.833 198.5,247.5C 196.576,247.289 196.243,246.623 197.5,245.5 Z"/></g>
<g><path style="opacity:0.027" fill="#fbf3f3" d="M 242.5,245.5 C 242.631,246.239 242.464,246.906 242,247.5C 241.308,246.563 241.475,245.897 242.5,245.5 Z"/></g>
<g><path style="opacity:0.02" fill="#fefefd" d="M 49.5,248.5 C 50.8333,249.167 50.8333,249.167 49.5,248.5 Z"/></g>
<g><path style="opacity:0.02" fill="#fefefd" d="M 66.5,248.5 C 67.8333,249.167 67.8333,249.167 66.5,248.5 Z"/></g>
<g><path style="opacity:0.02" fill="#fefefd" d="M 76.5,248.5 C 77.8333,249.167 77.8333,249.167 76.5,248.5 Z"/></g>
<g><path style="opacity:0.02" fill="#fefefd" d="M 85.5,248.5 C 86.8333,249.167 86.8333,249.167 85.5,248.5 Z"/></g>
<g><path style="opacity:0.02" fill="#fefefd" d="M 109.5,248.5 C 110.833,249.167 110.833,249.167 109.5,248.5 Z"/></g>
<g><path style="opacity:0.02" fill="#fefefd" d="M 127.5,248.5 C 128.833,249.167 128.833,249.167 127.5,248.5 Z"/></g>
<g><path style="opacity:0.02" fill="#fefefd" d="M 133.5,248.5 C 134.833,249.167 134.833,249.167 133.5,248.5 Z"/></g>
<g><path style="opacity:0.02" fill="#fefefd" d="M 144.5,248.5 C 145.833,249.167 145.833,249.167 144.5,248.5 Z"/></g>
<g><path style="opacity:0.02" fill="#fefefd" d="M 148.5,248.5 C 149.833,249.167 149.833,249.167 148.5,248.5 Z"/></g>
<g><path style="opacity:0.02" fill="#fefefd" d="M 153.5,248.5 C 154.833,249.167 154.833,249.167 153.5,248.5 Z"/></g>
<g><path style="opacity:0.02" fill="#fefefd" d="M 166.5,248.5 C 165.833,249.167 165.833,249.167 166.5,248.5 Z"/></g>
<g><path style="opacity:0.02" fill="#fefefd" d="M 170.5,248.5 C 171.833,249.167 171.833,249.167 170.5,248.5 Z"/></g>
<g><path style="opacity:0.02" fill="#fefefd" d="M 203.5,248.5 C 204.833,249.167 204.833,249.167 203.5,248.5 Z"/></g>
<g><path style="opacity:0.02" fill="#fefefd" d="M 214.5,248.5 C 215.833,249.167 215.833,249.167 214.5,248.5 Z"/></g>
<g><path style="opacity:0.02" fill="#fefefd" d="M 248.5,248.5 C 249.239,248.369 249.906,248.536 250.5,249C 249.563,249.692 248.897,249.525 248.5,248.5 Z"/></g>
<g><path style="opacity:0.027" fill="#f8efee" d="M 258.5,248.5 C 259.833,249.167 259.833,249.167 258.5,248.5 Z"/></g>
<g><path style="opacity:0.02" fill="#fefefd" d="M 262.5,248.5 C 263.833,249.167 263.833,249.167 262.5,248.5 Z"/></g>
<g><path style="opacity:0.02" fill="#fefefd" d="M 267.5,248.5 C 268.833,249.167 268.833,249.167 267.5,248.5 Z"/></g>
<g><path style="opacity:0.973" fill="#6c6a6a" d="M 141.5,246.5 C 142.167,247.167 142.833,247.833 143.5,248.5C 141.991,253.085 138.991,254.751 134.5,253.5C 137.87,252.13 140.203,249.797 141.5,246.5 Z"/></g>
<g><path style="opacity:0.961" fill="#726f6f" d="M 115.5,246.5 C 116.167,247.167 116.833,247.833 117.5,248.5C 115.991,253.085 112.991,254.751 108.5,253.5C 111.87,252.13 114.203,249.797 115.5,246.5 Z"/></g>
</svg>
